<svg width="46" height="52" viewBox="0 0 46 52" fill="none" xmlns="http://www.w3.org/2000/svg">
<path d="M7.89796 29.6994L8.24813 32.1748L10.398 31.8707V29.6994H7.89796ZM38.102 29.6994H35.602V31.8707L37.7519 32.1748L38.102 29.6994ZM26.6224 42C26.6224 43.1999 26.2272 44.5608 25.5202 45.5603C24.8489 46.5094 24.0161 47 23 47V52C25.9839 52 28.2123 50.4126 29.6022 48.4478C30.9565 46.5333 31.6224 44.1442 31.6224 42H26.6224ZM23 47C21.9839 47 21.1511 46.5094 20.4798 45.5603C19.7728 44.5608 19.3776 43.1999 19.3776 42H14.3776C14.3776 44.1442 15.0435 46.5333 16.3978 48.4478C17.7877 50.4126 20.0161 52 23 52V47ZM23 5.5C29.9861 5.5 35.602 11.0937 35.602 17.9358H40.602C40.602 8.28024 32.6952 0.5 23 0.5V5.5ZM23 0.5C13.3048 0.5 5.39796 8.28024 5.39796 17.9358H10.398C10.398 11.0937 16.0139 5.5 23 5.5V0.5ZM37.2857 38.445H8.71429V43.445H37.2857V38.445ZM8.71429 38.445C6.91292 38.445 5.5 37.008 5.5 35.2936H0.5C0.5 39.8215 4.20383 43.445 8.71429 43.445V38.445ZM40.5 35.2936C40.5 37.008 39.0871 38.445 37.2857 38.445V43.445C41.7962 43.445 45.5 39.8215 45.5 35.2936H40.5ZM7.54779 27.2241C3.58376 27.7848 0.5 31.1628 0.5 35.2936H5.5C5.5 33.7303 6.67372 32.3975 8.24813 32.1748L7.54779 27.2241ZM10.398 29.6994V17.9358H5.39796V29.6994H10.398ZM37.7519 32.1748C39.3263 32.3975 40.5 33.7303 40.5 35.2936H45.5C45.5 31.1628 42.4162 27.7848 38.4522 27.2241L37.7519 32.1748ZM35.602 17.9358V29.6994H40.602V17.9358H35.602Z" fill="black"/>
</svg>
