<svg width="51" height="38" viewBox="0 0 51 38" fill="none" xmlns="http://www.w3.org/2000/svg">
<path d="M3 7C3 4.79087 4.79086 3 7 3H41.7723C43.9814 3 45.7723 4.79086 45.7723 7V21.3727C45.7723 21.7707 45.8317 22.1664 45.9484 22.5468L48.2226 29.9538C49.2604 33.3339 45.7238 36.2995 42.5763 34.6886L36.6504 31.6555C36.0863 31.3668 35.4616 31.2162 34.8279 31.2162H7C4.79086 31.2162 3 29.4254 3 27.2162V7Z" fill="white"/>
<path d="M3 7C3 4.79087 4.79086 3 7 3H41.7723C43.9814 3 45.7723 4.79086 45.7723 7V21.3727C45.7723 21.7707 45.8317 22.1664 45.9484 22.5468L48.2226 29.9538C49.2604 33.3339 45.7238 36.2995 42.5763 34.6886L36.6504 31.6555C36.0863 31.3668 35.4616 31.2162 34.8279 31.2162H7C4.79086 31.2162 3 29.4254 3 27.2162V7Z" fill="white"/>
<path d="M3 7C3 4.79087 4.79086 3 7 3H41.7723C43.9814 3 45.7723 4.79086 45.7723 7V21.3727C45.7723 21.7707 45.8317 22.1664 45.9484 22.5468L48.2226 29.9538C49.2604 33.3339 45.7238 36.2995 42.5763 34.6886L36.6504 31.6555C36.0863 31.3668 35.4616 31.2162 34.8279 31.2162H7C4.79086 31.2162 3 29.4254 3 27.2162V7Z" stroke="black" stroke-width="5"/>
<path d="M3 7C3 4.79087 4.79086 3 7 3H41.7723C43.9814 3 45.7723 4.79086 45.7723 7V21.3727C45.7723 21.7707 45.8317 22.1664 45.9484 22.5468L48.2226 29.9538C49.2604 33.3339 45.7238 36.2995 42.5763 34.6886L36.6504 31.6555C36.0863 31.3668 35.4616 31.2162 34.8279 31.2162H7C4.79086 31.2162 3 29.4254 3 27.2162V7Z" stroke="black" stroke-width="5"/>
</svg>
