<svg width="68" height="50" viewBox="0 0 68 50" fill="none" xmlns="http://www.w3.org/2000/svg">
<path d="M52.2054 11.85C49.8271 11.85 47.6682 12.9235 46.2716 14.5588C44.8648 16.2061 44.1837 18.4978 44.9599 20.8264C45.0425 21.0741 45.1256 21.3308 45.2107 21.594L45.214 21.604C45.6746 23.0271 46.1966 24.6401 46.9981 25.9085C47.4999 26.7029 48.1547 27.4448 49.0478 27.9815C49.9507 28.5242 51.0027 28.8001 52.2054 28.8001C53.4081 28.8001 54.46 28.5242 55.3629 27.9815C56.256 27.4448 56.9108 26.7029 57.4127 25.9085C58.2141 24.6401 58.7362 23.0271 59.1967 21.604L59.2 21.594C59.2852 21.3308 59.3683 21.0741 59.4508 20.8264C60.227 18.4978 59.546 16.2061 58.1392 14.5588C56.7425 12.9235 54.5836 11.85 52.2054 11.85ZM47.9679 19.8237C47.5956 18.707 47.8833 17.5539 48.6827 16.618C49.4925 15.6697 50.7785 15.0207 52.2054 15.0207C53.6322 15.0207 54.9182 15.6697 55.7281 16.618C56.5274 17.5539 56.8151 18.707 56.4428 19.8237C56.3411 20.1289 56.2449 20.4239 56.1521 20.7083L56.1521 20.7084C55.6806 22.1537 55.3007 23.315 54.7321 24.215C54.4178 24.7124 54.0904 25.047 53.7296 25.2639C53.3786 25.4748 52.9051 25.6294 52.2054 25.6294C51.5056 25.6294 51.0321 25.4748 50.6811 25.2639C50.3204 25.047 49.9929 24.7124 49.6786 24.215C49.11 23.315 48.7301 22.1537 48.2587 20.7084L48.2585 20.708C48.1658 20.4237 48.0696 20.1288 47.9679 19.8237Z" fill="black" stroke="black" stroke-width="0.3"/>
<path d="M65.4107 41.1329C65.4107 34.157 59.6693 31.9467 51.9183 31.9467C48.5556 31.9467 45.6792 32.3627 43.5001 33.4034" stroke="black" stroke-width="3.5" stroke-linecap="round"/>
<path d="M11.0001 43.0461C11.0001 40.9773 11.3677 39.4913 11.9293 38.3916C12.4833 37.3069 13.283 36.4854 14.3348 35.8226C16.7005 34.3319 20.5932 33.4902 26.2661 33.4902C31.9241 33.4902 36.1063 34.3253 38.7418 35.8869C39.9337 36.5931 40.8175 37.4491 41.4182 38.5309C42.0225 39.6189 42.4106 41.0621 42.4106 43.0461C42.4106 45.5314 44.4254 47.5461 46.9106 47.5461C49.3959 47.5461 51.4106 45.5314 51.4106 43.0461C51.4106 36.1993 48.443 31.1739 43.3297 28.144C38.6081 25.3464 32.4684 24.4902 26.2661 24.4902C20.0786 24.4902 14.0887 25.3398 9.53664 28.2083C4.58331 31.3296 2.00006 36.3977 2.00006 43.0461C2.00006 45.5314 4.01478 47.5461 6.50006 47.5461C8.98534 47.5461 11.0001 45.5314 11.0001 43.0461Z" fill="black" stroke="white" stroke-width="4" stroke-linecap="round"/>
<path fill-rule="evenodd" clip-rule="evenodd" d="M26.7055 0C23.1354 0 19.8953 1.61178 17.8008 4.06427C15.692 6.53349 14.6787 9.95768 15.837 13.4326C15.9637 13.8128 16.0912 14.2065 16.2214 14.609C16.9296 16.7968 17.7211 19.2423 18.9319 21.1587C19.6862 22.3526 20.6644 23.4584 21.9924 24.2565C23.3339 25.0627 24.9016 25.4762 26.7055 25.4762C28.5094 25.4762 30.0771 25.0627 31.4186 24.2565C32.7466 23.4584 33.7248 22.3526 34.4791 21.1587C35.6899 19.2423 36.4815 16.7968 37.1896 14.609C37.3198 14.2065 37.4473 13.8128 37.574 13.4326C38.7323 9.95768 37.719 6.53349 35.6102 4.06427C33.5157 1.61178 30.2756 0 26.7055 0ZM21.1409 6.91686C19.8735 8.40085 19.4054 10.2476 20.0041 12.0436C20.1594 12.5097 20.3065 12.9605 20.4485 13.3959C21.167 15.5984 21.7568 17.4063 22.6453 18.8126C23.1398 19.5953 23.6646 20.1367 24.2551 20.4916C24.832 20.8384 25.5983 21.0838 26.7055 21.0838C27.8127 21.0838 28.579 20.8384 29.156 20.4916C29.7465 20.1367 30.2712 19.5953 30.7657 18.8126C31.6542 17.4063 32.244 15.5984 32.9625 13.3958C33.1045 12.9605 33.2516 12.5097 33.407 12.0436C34.0056 10.2476 33.5375 8.40085 32.2701 6.91686C30.9884 5.41615 28.9576 4.39245 26.7055 4.39245C24.4535 4.39245 22.4226 5.41615 21.1409 6.91686Z" fill="black"/>
</svg>
