<svg width="38" height="49" viewBox="0 0 38 49" fill="none" xmlns="http://www.w3.org/2000/svg">
<path d="M35.2 41V8C35.2 5.23858 32.9614 3 30.2 3H10.4909C7.72948 3 5.49091 5.23858 5.49091 8V41C5.49091 43.7614 7.72948 46 10.4909 46H30.2C32.9614 46 35.2 43.7614 35.2 41Z" stroke="black" stroke-width="5"/>
<path d="M25.0363 29.0364L15.6545 29.0364" stroke="black" stroke-width="5" stroke-linecap="round"/>
<path d="M25.0363 20L15.6545 20" stroke="black" stroke-width="5" stroke-linecap="round"/>
<rect x="0.799988" y="9.25452" width="4.69091" height="3.90909" rx="1.95455" fill="black"/>
<rect x="0.799927" y="17.8545" width="4.69091" height="3.90909" rx="1.95455" fill="black"/>
<rect x="0.799927" y="26.4546" width="4.69091" height="3.90909" rx="1.95455" fill="black"/>
<rect x="0.799927" y="35.0546" width="4.69091" height="3.90909" rx="1.95455" fill="black"/>
</svg>
