<svg width="50" height="50" viewBox="0 0 50 50" fill="none" xmlns="http://www.w3.org/2000/svg">
<path d="M3 25V46.1852C3 46.6352 3.3648 47 3.81481 47H25C37.1503 47 47 37.1503 47 25C47 12.8497 37.1503 3 25 3C12.8497 3 3 12.8497 3 25Z" stroke="black" stroke-width="5"/>
<path fill-rule="evenodd" clip-rule="evenodd" d="M25.1936 10.3333C22.2847 10.3333 19.6446 11.6466 17.9379 13.6449C16.2196 15.6568 15.394 18.4469 16.3378 21.2784C16.4411 21.5881 16.5449 21.9089 16.651 22.2369C17.228 24.0195 17.873 26.0122 18.8596 27.5737C19.4742 28.5465 20.2713 29.4475 21.3533 30.0978C22.4464 30.7547 23.7238 31.0917 25.1936 31.0917C26.6634 31.0917 27.9408 30.7547 29.034 30.0978C30.116 29.4475 30.913 28.5465 31.5277 27.5737C32.5143 26.0122 33.1592 24.0195 33.7362 22.2369C33.8423 21.9089 33.9462 21.5881 34.0494 21.2784C34.9932 18.4469 34.1676 15.6568 32.4493 13.6449C30.7427 11.6466 28.1026 10.3333 25.1936 10.3333ZM20.6595 15.9692C19.6268 17.1784 19.2454 18.6832 19.7332 20.1466C19.8598 20.5264 19.9796 20.8937 20.0953 21.2484C20.6808 23.0431 21.1613 24.5162 21.8853 25.662C22.2882 26.2998 22.7158 26.741 23.197 27.0301C23.6671 27.3127 24.2915 27.5126 25.1936 27.5126C26.0958 27.5126 26.7202 27.3127 27.1903 27.0301C27.6714 26.741 28.099 26.2998 28.502 25.662C29.2259 24.5162 29.7065 23.0431 30.2919 21.2484C30.4076 20.8937 30.5275 20.5264 30.6541 20.1466C31.1419 18.6832 30.7604 17.1784 29.7277 15.9692C28.6834 14.7464 27.0286 13.9123 25.1936 13.9123C23.3586 13.9123 21.7038 14.7464 20.6595 15.9692Z" fill="black"/>
<path d="M8.72992 45.4077C8.72992 43.4874 9.04401 41.8566 9.63752 40.4813C11.7319 35.6279 17.3059 33.9548 24.8356 33.9548C32.3653 33.9548 38.3738 35.6279 40.6602 40.4813" stroke="black" stroke-width="5" stroke-linecap="round"/>
</svg>
