<svg width="53" height="25" viewBox="0 0 53 25" fill="none" xmlns="http://www.w3.org/2000/svg">
<path d="M15.376 8.692C15.0092 8.08788 14.5022 7.624 13.8549 7.30036C13.2292 6.97673 12.4848 6.81491 11.6218 6.81491C10.0252 6.81491 8.76303 7.33273 7.83527 8.36836C6.92909 9.404 6.476 10.7956 6.476 12.5433C6.476 14.5067 6.96145 16.0062 7.93236 17.0418C8.92485 18.0559 10.3596 18.5629 12.2367 18.5629C14.459 18.5629 16.0448 17.5596 16.9942 15.5531H10.6185V10.9898H22.4636V17.1389C21.9674 18.3472 21.2338 19.4799 20.2629 20.5371C19.3136 21.5943 18.1053 22.4681 16.6382 23.1585C15.171 23.8274 13.4989 24.1618 11.6218 24.1618C9.33479 24.1618 7.30667 23.6764 5.53745 22.7055C3.78982 21.713 2.43055 20.3429 1.45964 18.5953C0.510303 16.8261 0.0356364 14.8087 0.0356364 12.5433C0.0356364 10.2994 0.510303 8.30364 1.45964 6.556C2.43055 4.78679 3.78982 3.41673 5.53745 2.44582C7.28509 1.45333 9.30242 0.957091 11.5895 0.957091C14.459 0.957091 16.8324 1.64752 18.7095 3.02836C20.5865 4.40921 21.7516 6.29709 22.2047 8.692H15.376ZM32.6205 1.18364V24H26.2772V1.18364H32.6205ZM52.6736 1.18364V6.23236H43.547V10.2455H50.2787V15.0676H43.547V24H37.2038V1.18364H52.6736Z" fill="black"/>
</svg>
