<svg width="68" height="42" viewBox="0 0 68 42" fill="none" xmlns="http://www.w3.org/2000/svg">
<path d="M54.5934 9.61746C52.6371 9.61746 50.8612 10.5004 49.7121 11.8459C48.5546 13.2013 47.9933 15.0883 48.6326 17.0062C48.7002 17.2089 48.7682 17.4191 48.838 17.6347L48.8412 17.6447C49.2181 18.8092 49.6466 20.1331 50.3049 21.1751C50.7176 21.8283 51.2568 22.4395 51.9929 22.8819C52.7373 23.3293 53.6039 23.5564 54.5934 23.5564C55.5829 23.5564 56.4496 23.3293 57.1939 22.8819C57.93 22.4395 58.4692 21.8283 58.8819 21.1751C59.5402 20.1331 59.9687 18.8092 60.3456 17.6447L60.3488 17.6347C60.4186 17.4191 60.4866 17.2089 60.5542 17.0062C61.1935 15.0883 60.6322 13.2013 59.4747 11.8459C58.3256 10.5004 56.5497 9.61746 54.5934 9.61746ZM51.148 16.1677C50.8465 15.2632 51.0789 14.3284 51.7284 13.5679C52.3868 12.797 53.4327 12.269 54.5934 12.269C55.7541 12.269 56.8 12.797 57.4584 13.5679C58.1079 14.3284 58.3403 15.2632 58.0388 16.1677C57.9554 16.4177 57.8766 16.6594 57.8006 16.8923L57.8005 16.8925C57.414 18.0774 57.1038 19.0251 56.6403 19.7588C56.3844 20.1637 56.119 20.4344 55.828 20.6093C55.5452 20.7792 55.1623 20.9048 54.5934 20.9048C54.0245 20.9048 53.6416 20.7792 53.3588 20.6093C53.0678 20.4344 52.8024 20.1637 52.5465 19.7588C52.083 19.0251 51.7728 18.0774 51.3863 16.8925L51.3861 16.892C51.3102 16.6592 51.2313 16.4176 51.148 16.1677Z" fill="black" stroke="black" stroke-width="0.3"/>
<path d="M65.4106 33.8125C65.4106 28.0982 60.7075 26.2876 54.3584 26.2876C51.6038 26.2876 49.2476 26.6284 47.4626 27.4809" stroke="black" stroke-width="3.5" stroke-linecap="round"/>
<path d="M12.8172 9.61746C14.7735 9.61746 16.5494 10.5004 17.6985 11.8459C18.856 13.2013 19.4173 15.0883 18.778 17.0062C18.7105 17.2089 18.6424 17.4191 18.5727 17.6347L18.5694 17.6447C18.1925 18.8092 17.764 20.1331 17.1057 21.1751C16.693 21.8283 16.1538 22.4395 15.4177 22.8819C14.6734 23.3293 13.8067 23.5564 12.8172 23.5564C11.8277 23.5564 10.9611 23.3293 10.2167 22.8819C9.4806 22.4395 8.94144 21.8283 8.52874 21.1751C7.87041 20.1331 7.44192 18.8092 7.06501 17.6447L7.06177 17.6347C6.99199 17.4191 6.92397 17.2089 6.85637 17.0062C6.21709 15.0883 6.77837 13.2013 7.93594 11.8459C9.08501 10.5004 10.8609 9.61746 12.8172 9.61746ZM16.2626 16.1677C16.5641 15.2632 16.3317 14.3284 15.6822 13.5679C15.0238 12.797 13.9779 12.269 12.8172 12.269C11.6565 12.269 10.6106 12.797 9.95222 13.5679C9.3027 14.3284 9.07034 15.2632 9.37184 16.1677C9.45518 16.4177 9.53403 16.6594 9.61002 16.8923L9.61008 16.8925C9.99661 18.0774 10.3068 19.0251 10.7703 19.7588C11.0262 20.1637 11.2916 20.4344 11.5826 20.6093C11.8654 20.7792 12.2483 20.9048 12.8172 20.9048C13.3861 20.9048 13.769 20.7792 14.0518 20.6093C14.3428 20.4344 14.6082 20.1637 14.8641 19.7588C15.3276 19.0251 15.6378 18.0774 16.0243 16.8925L16.0245 16.892C16.1005 16.6592 16.1793 16.4176 16.2626 16.1677Z" fill="black" stroke="black" stroke-width="0.3"/>
<path d="M2.00001 33.8125C2.00001 28.0982 6.70308 26.2876 13.0522 26.2876C15.8068 26.2876 18.163 26.6284 19.948 27.4809" stroke="black" stroke-width="3.5" stroke-linecap="round"/>
<path d="M21.2021 35.3795C21.2021 33.7274 21.4956 32.5696 21.9237 31.7314C22.3441 30.9081 22.9509 30.2814 23.7648 29.7685C25.6148 28.6027 28.7191 27.9136 33.3455 27.9136C37.9584 27.9136 41.3055 28.5968 43.3805 29.8263C44.3118 30.3781 44.9854 31.036 45.4411 31.8565C45.9002 32.6833 46.2085 33.8023 46.2085 35.3795C46.2085 37.6151 48.0208 39.4274 50.2564 39.4274C52.4919 39.4274 54.3042 37.6151 54.3042 35.3795C54.3042 29.6497 51.8114 25.4116 47.5074 22.8614C43.556 20.52 38.448 19.8179 33.3455 19.8179C28.2562 19.8179 23.2654 20.5142 19.4488 22.9192C15.271 25.5518 13.1063 29.8283 13.1063 35.3795C13.1063 37.6151 14.9186 39.4274 17.1542 39.4274C19.3898 39.4274 21.2021 37.6151 21.2021 35.3795Z" fill="black" stroke="white" stroke-width="4" stroke-linecap="round"/>
<path fill-rule="evenodd" clip-rule="evenodd" d="M33.7054 0.11853C30.781 0.11853 28.1269 1.43881 26.4112 3.44776C24.6837 5.47041 23.8537 8.27532 24.8025 11.1218C24.9063 11.4332 25.0107 11.7557 25.1174 12.0854C25.6975 13.8776 26.3459 15.8808 27.3377 17.4506C27.9556 18.4286 28.7569 19.3344 29.8447 19.9881C30.9436 20.6486 32.2278 20.9873 33.7054 20.9873C35.1831 20.9873 36.4672 20.6486 37.5662 19.9881C38.654 19.3344 39.4552 18.4286 40.0731 17.4506C41.065 15.8808 41.7134 13.8776 42.2934 12.0854C42.4001 11.7557 42.5045 11.4332 42.6083 11.1218C43.5571 8.27532 42.7271 5.47041 40.9997 3.44776C39.284 1.43881 36.6298 0.11853 33.7054 0.11853ZM29.1472 5.78445C28.109 7.00005 27.7256 8.51282 28.216 9.984C28.3432 10.3658 28.4637 10.7351 28.58 11.0917C29.1686 12.8959 29.6517 14.3768 30.3795 15.5288C30.7846 16.1699 31.2144 16.6135 31.6982 16.9042C32.1707 17.1882 32.7985 17.3892 33.7054 17.3892C34.6124 17.3892 35.2401 17.1882 35.7127 16.9042C36.1964 16.6135 36.6263 16.1699 37.0313 15.5288C37.7592 14.3768 38.2423 12.8959 38.8308 11.0917C38.9472 10.7351 39.0676 10.3658 39.1949 9.984C39.6853 8.51282 39.3018 7.00005 38.2636 5.78445C37.2138 4.55515 35.5502 3.71659 33.7054 3.71659C31.8607 3.71659 30.1971 4.55515 29.1472 5.78445Z" fill="black"/>
</svg>
