<svg width="56" height="43" viewBox="0 0 56 43" fill="none" xmlns="http://www.w3.org/2000/svg">
<path d="M3 6C3 4.34314 4.34315 3 6 3H36C37.6569 3 39 4.34315 39 6V18.1397C39 18.4448 39.0465 18.7481 39.138 19.0392L41.2803 25.8556C42.0742 28.3816 39.445 30.6225 37.0767 29.4384L31.2334 26.5167C30.8169 26.3084 30.3575 26.2 29.8918 26.2H6C4.34315 26.2 3 24.8569 3 23.2V6Z" stroke="black" stroke-width="5"/>
<rect x="7" y="7.80005" width="48.8" height="32" fill="white"/>
<path d="M12.6 16.4C12.6 14.7432 13.9431 13.4 15.6 13.4H45.6C47.2569 13.4 48.6 14.7432 48.6 16.4V28.5397C48.6 28.8448 48.6465 29.1481 48.738 29.4392L50.8803 36.2556C51.6742 38.7816 49.045 41.0225 46.6767 39.8384L40.8334 36.9167C40.4169 36.7085 39.9575 36.6 39.4918 36.6H15.6C13.9431 36.6 12.6 35.2569 12.6 33.6V16.4Z" fill="white"/>
<path d="M12.6 16.4C12.6 14.7432 13.9431 13.4 15.6 13.4H45.6C47.2569 13.4 48.6 14.7432 48.6 16.4V28.5397C48.6 28.8448 48.6465 29.1481 48.738 29.4392L50.8803 36.2556C51.6742 38.7816 49.045 41.0225 46.6767 39.8384L40.8334 36.9167C40.4169 36.7085 39.9575 36.6 39.4918 36.6H15.6C13.9431 36.6 12.6 35.2569 12.6 33.6V16.4Z" fill="white"/>
<path d="M12.6 16.4C12.6 14.7432 13.9431 13.4 15.6 13.4H45.6C47.2569 13.4 48.6 14.7432 48.6 16.4V28.5397C48.6 28.8448 48.6465 29.1481 48.738 29.4392L50.8803 36.2556C51.6742 38.7816 49.045 41.0225 46.6767 39.8384L40.8334 36.9167C40.4169 36.7085 39.9575 36.6 39.4918 36.6H15.6C13.9431 36.6 12.6 35.2569 12.6 33.6V16.4Z" stroke="black" stroke-width="5"/>
<path d="M12.6 16.4C12.6 14.7432 13.9431 13.4 15.6 13.4H45.6C47.2569 13.4 48.6 14.7432 48.6 16.4V28.5397C48.6 28.8448 48.6465 29.1481 48.738 29.4392L50.8803 36.2556C51.6742 38.7816 49.045 41.0225 46.6767 39.8384L40.8334 36.9167C40.4169 36.7085 39.9575 36.6 39.4918 36.6H15.6C13.9431 36.6 12.6 35.2569 12.6 33.6V16.4Z" stroke="black" stroke-width="5"/>
</svg>
