<svg width="42" height="59" viewBox="0 0 42 59" fill="none" xmlns="http://www.w3.org/2000/svg">
<path fill-rule="evenodd" clip-rule="evenodd" d="M21.2017 16.1475C18.1726 16.1475 15.4234 17.515 13.6462 19.5959C11.8569 21.691 10.9972 24.5964 11.98 27.5448C12.0875 27.8674 12.1956 28.2015 12.3062 28.5429C12.907 30.3993 13.5786 32.4743 14.606 34.1003C15.246 35.1133 16.076 36.0515 17.2027 36.7287C18.341 37.4128 19.6712 37.7637 21.2017 37.7637C22.7323 37.7637 24.0625 37.4128 25.2007 36.7287C26.3275 36.0515 27.1575 35.1133 27.7975 34.1003C28.8249 32.4743 29.4965 30.3993 30.0973 28.543C30.2078 28.2015 30.316 27.8674 30.4235 27.5448C31.4063 24.5964 30.5465 21.691 28.7572 19.5959C26.9801 17.515 24.2309 16.1475 21.2017 16.1475ZM16.4803 22.0163C15.4049 23.2755 15.0077 24.8424 15.5157 26.3663C15.6475 26.7618 15.7723 27.1443 15.8928 27.5136C16.5024 29.3825 17.0028 30.9164 17.7567 32.1096C18.1763 32.7738 18.6215 33.2332 19.1226 33.5343C19.6121 33.8285 20.2623 34.0367 21.2017 34.0367C22.1412 34.0367 22.7914 33.8285 23.2809 33.5343C23.7819 33.2332 24.2272 32.7738 24.6468 32.1096C25.4007 30.9164 25.9011 29.3825 26.5107 27.5136C26.6312 27.1442 26.756 26.7618 26.8878 26.3663C27.3958 24.8424 26.9986 23.2755 25.9232 22.0163C24.8357 20.743 23.1126 19.8744 21.2017 19.8744C19.2909 19.8744 17.5677 20.743 16.4803 22.0163Z" fill="black"/>
<path d="M38.3454 52.6714C38.3454 43.6148 30.8916 40.7452 20.8289 40.7452C10.7662 40.7452 4.05768 43.6148 4.05768 52.6714" stroke="black" stroke-width="4" stroke-linecap="round"/>
<path d="M3.18182 14.3333C3.18182 11.5719 5.4204 9.33333 8.18182 9.33333H15.4333C16.7475 9.33333 17.9312 8.53865 18.4288 7.32231V7.32231C19.5257 4.64094 23.3228 4.64094 24.4197 7.32231V7.32231C24.9173 8.53865 26.101 9.33333 27.4152 9.33333H33.8182C36.5796 9.33333 38.8182 11.5719 38.8182 14.3333V51C38.8182 53.7614 36.5796 56 33.8182 56H8.18183C5.4204 56 3.18182 53.7614 3.18182 51V14.3333Z" stroke="black" stroke-width="5"/>
</svg>
