<svg width="46" height="46" viewBox="0 0 46 46" fill="none" xmlns="http://www.w3.org/2000/svg">
<path fill-rule="evenodd" clip-rule="evenodd" d="M23.2376 0.0310059C19.6675 0.0310059 16.4274 1.64279 14.3328 4.09528C12.224 6.5645 11.2107 9.98868 12.3691 13.4636C12.4958 13.8438 12.6232 14.2375 12.7535 14.64C13.4616 16.8278 14.2531 19.2733 15.464 21.1898C16.2183 22.3837 17.1965 23.4894 18.5244 24.2875C19.866 25.0938 21.4337 25.5072 23.2376 25.5072C25.0414 25.5072 26.6091 25.0938 27.9507 24.2875C29.2786 23.4894 30.2568 22.3837 31.0112 21.1898C32.222 19.2733 33.0135 16.8278 33.7216 14.64C33.8519 14.2375 33.9793 13.8438 34.106 13.4636C35.2644 9.98868 34.2511 6.5645 32.1423 4.09528C30.0477 1.64279 26.8076 0.0310059 23.2376 0.0310059ZM17.673 6.94787C16.4056 8.43186 15.9374 10.2786 16.5361 12.0746C16.6915 12.5407 16.8385 12.9915 16.9806 13.4269C17.6991 15.6294 18.2888 17.4373 19.1773 18.8436C19.6719 19.6263 20.1966 20.1677 20.7871 20.5227C21.364 20.8694 22.1304 21.1148 23.2376 21.1148C24.3447 21.1148 25.1111 20.8694 25.688 20.5227C26.2785 20.1677 26.8033 19.6263 27.2978 18.8436C28.1863 17.4373 28.7761 15.6294 29.4946 13.4269C29.6366 12.9915 29.7836 12.5407 29.939 12.0746C30.5377 10.2786 30.0695 8.43186 28.8022 6.94787C27.5205 5.44715 25.4896 4.42346 23.2376 4.42346C20.9855 4.42346 18.9546 5.44715 17.673 6.94787Z" fill="black"/>
<path d="M43.4428 43.0771C43.4428 32.4032 34.6579 29.0212 22.7983 29.0212C10.9386 29.0212 3.03223 32.4032 3.03223 43.0771" stroke="black" stroke-width="5" stroke-linecap="round"/>
</svg>
